HIERARCHY
ROOT Hips
{
	OFFSET 0.000000 0.000000 0.000000
	CHANNELS 6 Xposition Yposition Zposition Zrotation Yrotation Xrotation 
	JOINT LHipJoint
	{
		OFFSET 0.000000 0.000000 0.000000
		CHANNELS 3 Zrotation Yrotation Xrotation
		JOINT LeftUpLeg
		{
			OFFSET 1.363060 -1.794630 0.839290
			CHANNELS 3 Zrotation Yrotation Xrotation
			JOINT LeftLeg
			{
				OFFSET 2.448110 -6.726130 0.000000
				CHANNELS 3 Zrotation Yrotation Xrotation
				JOINT LeftFoot
				{
					OFFSET 2.562200 -7.039590 0.000000
					CHANNELS 3 Zrotation Yrotation Xrotation
					JOINT LeftToeBase
					{
						OFFSET 0.157640 -0.433110 2.322550
						CHANNELS 3 Zrotation Yrotation Xrotation
						End Site
						{
							OFFSET 0.000000 0.000000 0.000000
						}
					}
				}
			}
		}
	}
	JOINT RHipJoint
	{
		OFFSET 0.000000 0.000000 0.000000
		CHANNELS 3 Zrotation Yrotation Xrotation
		JOINT RightUpLeg
		{
			OFFSET -1.305520 -1.794630 0.839290
			CHANNELS 3 Zrotation Yrotation Xrotation
			JOINT RightLeg
			{
				OFFSET -2.542530 -6.985550 0.000000
				CHANNELS 3 Zrotation Yrotation Xrotation
				JOINT RightFoot
				{
					OFFSET -2.568260 -7.056230 0.000000
					CHANNELS 3 Zrotation Yrotation Xrotation
					JOINT RightToeBase
					{
						OFFSET -0.164730 -0.452590 2.363150
						CHANNELS 3 Zrotation Yrotation Xrotation
						End Site
						{
							OFFSET 0.000000 0.000000 0.000000
						}
					}
				}
			}
		}
	}
	JOINT LowerBack
	{
		OFFSET 0.000000 0.000000 0.000000
		CHANNELS 3 Zrotation Yrotation Xrotation
		JOINT Spine
		{
			OFFSET 0.028270 2.035590 -0.193380
			CHANNELS 3 Zrotation Yrotation Xrotation
			JOINT Spine1
			{
				OFFSET 0.056720 2.048850 -0.042750
				CHANNELS 3 Zrotation Yrotation Xrotation
				JOINT Neck
				{
					OFFSET 0.000000 0.000000 0.000000
					CHANNELS 3 Zrotation Yrotation Xrotation
					JOINT Neck1
					{
						OFFSET -0.054170 1.746240 0.172020
						CHANNELS 3 Zrotation Yrotation Xrotation
						JOINT Head
						{
							OFFSET 0.104070 1.761360 -0.123970
							CHANNELS 3 Zrotation Yrotation Xrotation
							End Site
							{
								OFFSET 0.000000 0.000000 0.000000
							}
						}
					}
				}
				JOINT LeftShoulder
				{
					OFFSET 0.000000 0.000000 0.000000
					CHANNELS 3 Zrotation Yrotation Xrotation
					JOINT LeftArm
					{
						OFFSET 3.362410 1.200890 -0.311210
						CHANNELS 3 Zrotation Yrotation Xrotation
						JOINT LeftForeArm
						{
							OFFSET 4.983000 -0.000000 -0.000000
							CHANNELS 3 Zrotation Yrotation Xrotation
							JOINT LeftHand
							{
								OFFSET 3.483560 -0.000000 -0.000000
								CHANNELS 3 Zrotation Yrotation Xrotation
								JOINT LeftFingerBase
								{
									OFFSET 0.000000 0.000000 0.000000
									CHANNELS 3 Zrotation Yrotation Xrotation
									JOINT LeftHandIndex1
									{
										OFFSET 0.715260 -0.000000 -0.000000
										CHANNELS 3 Zrotation Yrotation Xrotation
										End Site
										{
											OFFSET 0.000000 0.000000 0.000000
										}
									}
								}
								JOINT LThumb
								{
									OFFSET 0.000000 0.000000 0.000000
									CHANNELS 3 Zrotation Yrotation Xrotation
									End Site
									{
										OFFSET 0.000000 0.000000 0.000000
									}
								}
							}
						}
					}
				}
				JOINT RightShoulder
				{
					OFFSET 0.000000 0.000000 0.000000
					CHANNELS 3 Zrotation Yrotation Xrotation
					JOINT RightArm
					{
						OFFSET -3.136600 1.374050 -0.404650
						CHANNELS 3 Zrotation Yrotation Xrotation
						JOINT RightForeArm
						{
							OFFSET -5.241900 -0.000000 -0.000000
							CHANNELS 3 Zrotation Yrotation Xrotation
							JOINT RightHand
							{
								OFFSET -3.444170 -0.000000 -0.000000
								CHANNELS 3 Zrotation Yrotation Xrotation
								JOINT RightFingerBase
								{
									OFFSET 0.000000 0.000000 0.000000
									CHANNELS 3 Zrotation Yrotation Xrotation
									JOINT RightHandIndex1
									{
										OFFSET -0.622530 -0.000000 -0.000000
										CHANNELS 3 Zrotation Yrotation Xrotation
										End Site
										{
											OFFSET 0.000000 0.000000 0.000000
										}
									}
								}
								JOINT RThumb
								{
									OFFSET 0.000000 0.000000 0.000000
									CHANNELS 3 Zrotation Yrotation Xrotation
									End Site
									{
										OFFSET 0.000000 0.000000 0.000000
									}
								}
							}
						}
					}
				}
			}
		}
	}
}
MOTION
Frames: 12
Frame Time: 0.008333
1.342125 17.877701 12.565355 178.593787 0.238716 -172.718178 -3.149901 1.666092 2.093360 -20.452869 -4.116657 -14.159241 -0.190560 6.905735 22.432659 1.116765 -3.330652 -0.531322 0.000400 0.123200 0.338400 2.206827 -2.190521 1.663757 11.760637 10.504287 -17.049893 -1.860506 -10.271058 31.173529 -0.624793 -0.276162 -9.268238 -0.060800 -1.591300 4.377300 -5.122667 1.010147 -1.470147 0.395458 0.827406 -1.899376 4.177497 0.887048 0.165024 -6.806225 -1.928648 -15.985757 3.127837 1.576800 27.792454 3.124500 0.768200 16.669000 -10.818573 -0.846787 -1.738071 -78.139046 1.017661 21.086259 11.037355 -21.887487 -2.594079 -0.422351 -1.798708 11.369313 14.401779 22.501991 6.088200 -7.125000 0.000000 0.000000 -15.774700 54.382100 -3.706600 9.638220 1.623049 -1.891994 75.783069 -5.170784 16.615732 -16.937031 24.441929 -4.660481 0.466188 -0.514999 21.242462 -17.139081 3.925677 -1.355800 7.125000 0.000000 0.000000 6.690000 -25.525900 3.174600 
1.338679 17.876586 12.564848 178.703527 0.322820 -172.691413 -3.149053 1.660888 2.090780 -20.350266 -4.096991 -14.233181 -0.179891 6.932041 22.498962 1.109888 -3.280441 -0.579434 0.000200 0.081800 0.224800 2.211755 -2.188539 1.660408 11.854240 10.545310 -17.063876 -1.853599 -10.258365 31.142620 -0.634428 -0.222590 -9.228014 -0.068900 -1.693200 4.658500 -4.988620 1.036881 -1.491216 0.399813 0.861516 -1.901344 4.104586 0.907612 0.177661 -6.558728 -1.858384 -16.269751 2.962303 1.662754 27.979491 3.021600 0.814600 16.837500 -10.807032 -0.864493 -1.735858 -78.082407 1.023442 21.147576 11.055991 -21.918359 -2.602124 -0.419649 -1.802750 11.274177 14.398486 22.560675 6.101000 -7.125000 0.000000 0.000000 -15.810100 54.441700 -3.738400 9.647310 1.610154 -1.898648 75.846049 -5.122663 16.502321 -16.940387 24.443119 -4.661896 0.449188 -0.512133 21.337224 -16.944843 4.012587 -1.366800 7.125000 0.000000 0.000000 6.844500 -25.437600 3.263100 
1.335638 17.878005 12.565457 178.757750 0.340967 -172.691114 -3.152335 1.662130 2.091798 -20.289888 -4.145677 -14.222166 -0.181399 6.931705 22.493737 1.100710 -3.232281 -0.598071 0.000300 0.102600 0.281900 2.211303 -2.188549 1.659254 11.904419 10.546349 -17.070663 -1.854269 -10.258427 31.147965 -0.618275 -0.274336 -9.190670 -0.060200 -1.583000 4.354600 -4.957875 1.020860 -1.425482 0.428841 0.835552 -1.910227 4.134665 0.896928 0.133437 -6.558495 -1.848380 -16.339234 2.928401 1.699386 28.038284 3.013500 0.823700 16.888000 -10.803305 -0.867748 -1.736353 -78.100582 1.024502 21.137016 11.033464 -21.883312 -2.592071 -0.428658 -1.795776 11.414814 14.498489 22.454345 6.121100 -7.125000 0.000000 0.000000 -15.648000 54.353600 -3.664700 9.647239 1.609672 -1.902205 75.830254 -5.138709 16.608282 -17.008020 24.525432 -4.694510 0.439647 -0.506745 21.333908 -16.833116 4.056863 -1.370000 7.125000 0.000000 0.000000 6.934900 -25.396200 3.313500 
1.332293 17.876992 12.563733 178.720508 0.380000 -172.710203 -3.153281 1.662870 2.093989 -20.356368 -4.091478 -14.205720 -0.179545 6.931279 22.497049 1.088580 -3.183794 -0.608042 -0.000000 0.006300 0.017400 2.204354 -2.188713 1.659641 11.853826 10.496180 -17.085875 -1.857590 -10.264729 31.161288 -0.622750 -0.246127 -9.139999 -0.057300 -1.544500 4.248300 -5.020065 1.003695 -1.376989 0.448942 0.810250 -1.906128 4.204522 0.883361 0.119404 -6.670051 -1.856791 -16.348287 2.926330 1.734382 28.053617 3.039600 0.819400 16.898800 -10.803697 -0.865840 -1.738445 -78.105175 1.031153 21.204197 11.008590 -21.847860 -2.583006 -0.425849 -1.792352 11.569771 14.373156 22.404238 6.050900 -7.125000 0.000000 0.000000 -15.752800 54.276100 -3.660000 9.646376 1.610584 -1.903338 75.767753 -5.162395 16.803651 -17.062524 24.592995 -4.720493 0.445081 -0.502880 21.206645 -16.873654 4.018993 -1.360400 7.125000 0.000000 0.000000 6.904000 -25.439100 3.291600 
1.327934 17.876181 12.560389 178.657290 0.476381 -172.715445 -3.154083 1.663824 2.093933 -20.459593 -4.095944 -14.162336 -0.180913 6.923776 22.481943 1.059677 -3.067286 -0.619685 0.000100 -0.064200 -0.176400 2.199221 -2.190718 1.660682 11.758648 10.502877 -17.085063 -1.862996 -10.273096 31.179194 -0.666348 -0.075999 -9.135603 -0.066100 -1.658200 4.562000 -5.082618 1.030406 -1.382292 0.435842 0.845793 -1.909202 4.212516 0.901603 0.115429 -6.581324 -1.836821 -16.528200 2.861154 1.788237 28.216703 3.007800 0.846400 17.034800 -10.801670 -0.872987 -1.737032 -78.072293 1.013026 21.217553 10.959535 -21.774441 -2.561362 -0.423334 -1.796414 11.615203 14.274479 22.502564 6.029500 -7.125000 0.000000 0.000000 -15.907800 54.355300 -3.728500 9.650708 1.604416 -1.908978 75.757353 -5.201865 16.882782 -17.092736 24.627729 -4.732796 0.453941 -0.490321 21.088093 -16.852877 3.848864 -1.301300 7.125000 0.000000 0.000000 6.925200 -25.630700 3.270700 
1.324387 17.875370 12.559780 178.626283 0.529877 -172.713339 -3.153821 1.664175 2.093435 -20.513323 -4.125926 -14.139345 -0.182443 6.918535 22.470425 1.042273 -2.996433 -0.631334 0.000100 -0.068800 -0.189000 2.195757 -2.188542 1.660437 11.716815 10.460497 -17.127096 -1.868237 -10.282646 31.202611 -0.664954 -0.072202 -9.091040 -0.058800 -1.565200 4.305500 -5.091283 1.039977 -1.357849 0.411106 0.857990 -1.922744 4.178772 0.909872 0.069895 -6.586212 -1.841116 -16.367958 2.893079 1.765677 28.162750 3.019700 0.843900 16.963800 -10.806955 -0.870986 -1.739019 -77.971340 1.061921 21.313370 10.964198 -21.788353 -2.562804 -0.419963 -1.805589 11.573775 14.227131 22.684950 6.051100 -7.125000 0.000000 0.000000 -16.056700 54.531000 -3.834400 9.640197 1.605644 -1.909984 75.832524 -5.269843 16.856839 -17.123842 24.665982 -4.749146 0.453043 -0.497850 21.095522 -16.930350 3.939060 -1.338300 7.125000 0.000000 0.000000 6.861300 -25.527500 3.256800 
1.322055 17.876688 12.559983 178.625374 0.583039 -172.697854 -3.154047 1.665249 2.095097 -20.522013 -4.119147 -14.159951 -0.183598 6.917660 22.465222 1.039388 -2.983980 -0.630525 0.000100 -0.055100 -0.151300 2.196018 -2.184823 1.656858 11.698806 10.508949 -17.141788 -1.870201 -10.284247 31.210564 -0.656762 -0.105664 -9.098220 -0.055300 -1.517400 4.173600 -5.091606 1.056454 -1.318556 0.396624 0.880263 -1.946318 4.171141 0.922268 -0.011581 -6.928931 -1.944322 -15.797293 3.184865 1.605175 27.825955 3.185800 0.773100 16.645000 -10.825620 -0.842642 -1.746382 -77.918794 1.129551 21.361680 10.977324 -21.812199 -2.566394 -0.418775 -1.815416 11.625305 14.191538 22.916847 6.088600 -7.125000 0.000000 0.000000 -16.223100 54.757600 -3.966300 9.614270 1.630410 -1.900823 75.908435 -5.355861 16.765334 -17.149365 24.698879 -4.764733 0.459060 -0.516910 21.189997 -17.190613 4.065921 -1.405900 7.125000 0.000000 0.000000 6.650100 -25.373500 3.179200 
1.320332 17.877498 12.558868 178.663251 0.606326 -172.674841 -3.155239 1.663272 2.095417 -20.485779 -4.108386 -14.187866 -0.185411 6.916259 22.457603 1.036545 -2.971093 -0.602539 0.000000 0.020300 0.055800 2.195596 -2.181481 1.654050 11.735761 10.488770 -17.179583 -1.871203 -10.285768 31.216978 -0.652068 -0.116549 -9.073232 -0.049300 -1.433500 3.942400 -5.072579 1.046813 -1.322655 0.412636 0.866863 -1.957033 4.194758 0.917126 -0.031002 -6.982550 -1.931625 -15.625738 3.223533 1.614568 27.733074 3.211100 0.775600 16.547400 -10.825183 -0.836647 -1.750130 -77.924806 1.203901 21.309561 11.027163 -21.891612 -2.588491 -0.411181 -1.822379 11.600741 14.096454 23.053702 6.075300 -7.125000 0.000000 0.000000 -16.401700 54.875700 -4.059400 9.609057 1.631221 -1.900029 75.925559 -5.394235 16.705226 -17.156813 24.707338 -4.768279 0.461275 -0.514819 21.355763 -17.208007 3.978796 -1.378200 7.125000 0.000000 0.000000 6.639000 -25.468600 3.159000 
1.318406 17.877296 12.557145 178.660647 0.637381 -172.650022 -3.158210 1.659455 2.091759 -20.494388 -4.145120 -14.188357 -0.185231 6.917235 22.460369 1.016426 -2.888766 -0.583302 -0.000000 0.022900 0.062800 2.193034 -2.181420 1.650755 11.721539 10.513691 -17.200950 -1.868846 -10.283708 31.207035 -0.647440 -0.128354 -9.046348 -0.046700 -1.395000 3.836500 -5.125741 1.015911 -1.355393 0.447575 0.824760 -1.949444 4.272781 0.895682 0.021287 -6.754627 -1.838410 -16.069310 3.040706 1.793140 28.078236 3.122100 0.855900 16.836300 -10.808589 -0.855449 -1.746805 -78.011844 1.157615 21.101039 11.020210 -21.876852 -2.586383 -0.417001 -1.813917 11.634540 14.189373 22.892045 6.080900 -7.125000 0.000000 0.000000 -16.213100 54.731200 -3.953200 9.630774 1.614162 -1.907446 75.822753 -5.337170 16.867950 -17.148912 24.695671 -4.760920 0.465496 -0.497382 21.353875 -17.083178 3.756721 -1.291400 7.125000 0.000000 0.000000 6.744700 -25.721400 3.170000 
1.315062 17.876789 12.554915 178.616774 0.629218 -172.666440 -3.158438 1.659702 2.090643 -20.555151 -4.141240 -14.157247 -0.183943 6.916166 22.462573 1.016545 -2.892306 -0.607048 0.000200 -0.101300 -0.278400 2.188480 -2.183987 1.653391 11.669202 10.474721 -17.191146 -1.869063 -10.285579 31.206103 -0.653449 -0.095665 -9.001096 -0.048000 -1.413300 3.886800 -5.192429 0.986063 -1.332142 0.455325 0.783780 -1.928664 4.316007 0.872838 0.057558 -6.620170 -1.803626 -16.327106 2.941318 1.854397 28.248828 3.064700 0.885000 16.993200 -10.800910 -0.867653 -1.743834 -78.033301 1.102412 21.048411 11.018273 -21.871220 -2.583369 -0.430602 -1.809838 11.591139 14.453485 22.829079 6.189600 -7.125000 0.000000 0.000000 -15.899200 54.722500 -3.870300 9.643668 1.606757 -1.908647 75.776511 -5.256940 16.985521 -17.118716 24.655499 -4.744642 0.477859 -0.500304 21.250466 -17.214626 3.694224 -1.282300 7.125000 0.000000 0.000000 6.639200 -25.784200 3.109900 
1.312122 17.875471 12.554712 178.587571 0.591009 -172.680267 -3.158798 1.661731 2.089498 -20.594652 -4.184867 -14.113110 -0.184616 6.912560 22.456037 1.016371 -2.890257 -0.652748 0.000200 -0.085700 -0.235600 2.185617 -2.186514 1.657288 11.624609 10.441047 -17.176772 -1.871373 -10.288966 31.212201 -0.687064 0.033105 -9.009129 -0.057500 -1.546700 4.254400 -5.217803 0.956399 -1.298888 0.455390 0.742674 -1.916412 4.329203 0.851182 0.066065 -6.594192 -1.805661 -16.346491 2.891686 1.843166 28.237917 3.032900 0.875600 16.991700 -10.798232 -0.871974 -1.743147 -78.032788 1.096662 21.029263 11.054677 -21.926494 -2.600022 -0.428481 -1.809763 11.497096 14.471395 22.802972 6.191800 -7.125000 0.000000 0.000000 -15.866500 54.700300 -3.853300 9.644624 1.604132 -1.907712 75.787782 -5.217916 17.023253 -17.103677 24.634187 -4.737401 0.491120 -0.512799 21.181996 -17.455174 3.717503 -1.312200 7.125000 0.000000 0.000000 6.444100 -25.746100 3.023200 
1.310602 17.873951 12.554611 178.524231 0.622998 -172.675879 -3.158334 1.660187 2.086183 -20.675207 -4.198843 -14.102462 -0.183653 6.911879 22.457912 1.007258 -2.854565 -0.681330 0.000100 -0.046200 -0.127000 2.182283 -2.187251 1.657842 11.542174 10.455731 -17.177150 -1.873612 -10.292923 31.217559 -0.709565 0.118020 -9.014125 -0.065300 -1.648200 4.534400 -5.294830 0.950902 -1.312722 0.442522 0.736311 -1.913904 4.352213 0.847806 0.075424 -6.566450 -1.800474 -16.299308 2.862364 1.847373 28.241684 3.014000 0.879100 16.978800 -10.795860 -0.872591 -1.745505 -78.000884 1.156627 21.130635 11.109058 -22.014800 -2.624452 -0.414564 -1.821178 11.323997 14.316316 22.990578 6.164000 -7.125000 0.000000 0.000000 -16.134700 54.858800 -3.984000 9.641227 1.599715 -1.908352 75.818620 -5.233028 16.981887 -17.115922 24.647445 -4.743582 0.497605 -0.517680 21.186316 -17.573332 3.710683 -1.320400 7.125000 0.000000 0.000000 6.349300 -25.748200 2.977900 
